{
  "accessors": [
    {
      "bufferView": 2,
      "componentType": 5126,
      "count": 65532,
      "max": [
        0.5933169722557068,
        0.9492899775505066,
        0.04083700105547905
      ],
      "min": [
        -0.639132022857666,
        -0.8612160086631775,
        -0.0399090014398098
      ],
      "type": "VEC3"
    },
    {
      "bufferView": 2,
      "byteOffset": 786384,
      "componentType": 5126,
      "count": 65532,
      "max": [
        0.999998927116394,
        0.9999558925628662,
        1.0
      ],
      "min": [
        -0.9999984502792358,
        -0.9999489784240723,
        -1.0
      ],
      "type": "VEC3"
    },
    {
      "bufferView": 3,
      "componentType": 5126,
      "count": 65532,
      "max": [
        0.9999899864196777,
        0.9999991655349731,
        0.9999219179153442,
        1.0
      ],
      "min": [
        -0.9999976754188538,
        -0.9999998211860657,
        -0.9999843835830688,
        -1.0
      ],
      "type": "VEC4"
    },
    {
      "bufferView": 1,
      "componentType": 5126,
      "count": 65532,
      "max": [
        0.999875009059906,
        0.9998589754104614
      ],
      "min": [
        0.0016380000161007047,
        0.001537024974822998
      ],
      "type": "VEC2"
    },
    {
      "bufferView": 1,
      "byteOffset": 524256,
      "componentType": 5126,
      "count": 65532,
      "max": [
        0.999875009059906,
        0.9998589754104614
      ],
      "min": [
        0.0016380000161007047,
        0.001537024974822998
      ],
      "type": "VEC2"
    },
    {
      "bufferView": 1,
      "byteOffset": 1048512,
      "componentType": 5126,
      "count": 65532,
      "max": [
        0.999875009059906,
        0.9998589754104614
      ],
      "min": [
        0.0016380000161007047,
        0.001537024974822998
      ],
      "type": "VEC2"
    },
    {
      "bufferView": 1,
      "byteOffset": 1572768,
      "componentType": 5126,
      "count": 65532,
      "max": [
        0.999875009059906,
        0.9998589754104614
      ],
      "min": [
        0.0016380000161007047,
        0.001537024974822998
      ],
      "type": "VEC2"
    },
    {
      "bufferView": 0,
      "componentType": 5125,
      "count": 325047,
      "type": "SCALAR"
    },
    {
      "bufferView": 2,
      "byteOffset": 1572768,
      "componentType": 5126,
      "count": 65532,
      "max": [
        0.6338599920272827,
        0.9351940155029297,
        0.02167000062763691
      ],
      "min": [
        -0.6389009952545166,
        -0.9510679841041565,
        -0.027807999402284622
      ],
      "type": "VEC3"
    },
    {
      "bufferView": 2,
      "byteOffset": 2359152,
      "componentType": 5126,
      "count": 65532,
      "max": [
        0.999994158744812,
        0.9997521638870239,
        1.0
      ],
      "min": [
        -0.9999550580978394,
        -0.9998275637626648,
        -0.9999991655349731
      ],
      "type": "VEC3"
    },
    {
      "bufferView": 3,
      "byteOffset": 1048512,
      "componentType": 5126,
      "count": 65532,
      "max": [
        0.9999973177909851,
        0.9999777674674988,
        0.9999898076057434,
        1.0
      ],
      "min": [
        -0.999931812286377,
        -0.9999979734420776,
        -0.9998851418495178,
        -1.0
      ],
      "type": "VEC4"
    },
    {
      "bufferView": 1,
      "byteOffset": 2097024,
      "componentType": 5126,
      "count": 65532,
      "max": [
        0.9999650120735168,
        0.9993739724159241
      ],
      "min": [
        1.9999999494757503e-05,
        0.0015890002250671387
      ],
      "type": "VEC2"
    },
    {
      "bufferView": 1,
      "byteOffset": 2621280,
      "componentType": 5126,
      "count": 65532,
      "max": [
        0.9999650120735168,
        0.9993739724159241
      ],
      "min": [
        1.9999999494757503e-05,
        0.0015890002250671387
      ],
      "type": "VEC2"
    },
    {
      "bufferView": 1,
      "byteOffset": 3145536,
      "componentType": 5126,
      "count": 65532,
      "max": [
        0.9999650120735168,
        0.9993739724159241
      ],
      "min": [
        1.9999999494757503e-05,
        0.0015890002250671387
      ],
      "type": "VEC2"
    },
    {
      "bufferView": 1,
      "byteOffset": 3669792,
      "componentType": 5126,
      "count": 65532,
      "max": [
        0.9999650120735168,
        0.9993739724159241
      ],
      "min": [
        1.9999999494757503e-05,
        0.0015890002250671387
      ],
      "type": "VEC2"
    },
    {
      "bufferView": 0,
      "byteOffset": 1300188,
      "componentType": 5125,
      "count": 315843,
      "type": "SCALAR"
    },
    {
      "bufferView": 2,
      "byteOffset": 3145536,
      "componentType": 5126,
      "count": 28215,
      "max": [
        0.6338599920272827,
        0.9504240155220032,
        0.0020840000361204147
      ],
      "min": [
        -0.6372820138931274,
        -0.9433590173721313,
        -0.04168500006198883
      ],
      "type": "VEC3"
    },
    {
      "bufferView": 2,
      "byteOffset": 3484116,
      "componentType": 5126,
      "count": 28215,
      "max": [
        0.9999921321868896,
        0.9951639175415039,
        0.9998518228530884
      ],
      "min": [
        -0.9987912774085999,
        -0.9986083507537842,
        -1.0
      ],
      "type": "VEC3"
    },
    {
      "bufferView": 3,
      "byteOffset": 2097024,
      "componentType": 5126,
      "count": 28215,
      "max": [
        0.9999929070472717,
        0.9999991655349731,
        0.9997549653053284,
        1.0
      ],
      "min": [
        -0.9999679923057556,
        -0.9999834299087524,
        -0.9999887943267822,
        -1.0
      ],
      "type": "VEC4"
    },
    {
      "bufferView": 1,
      "byteOffset": 4194048,
      "componentType": 5126,
      "count": 28215,
      "max": [
        0.99993497133255,
        0.9999729990959167
      ],
      "min": [
        7.999999979801942e-06,
        0.0017020106315612793
      ],
      "type": "VEC2"
    },
    {
      "bufferView": 1,
      "byteOffset": 4419768,
      "componentType": 5126,
      "count": 28215,
      "max": [
        0.99993497133255,
        0.9999729990959167
      ],
      "min": [
        7.999999979801942e-06,
        0.0017020106315612793
      ],
      "type": "VEC2"
    },
    {
      "bufferView": 1,
      "byteOffset": 4645488,
      "componentType": 5126,
      "count": 28215,
      "max": [
        0.99993497133255,
        0.9999729990959167
      ],
      "min": [
        7.999999979801942e-06,
        0.0017020106315612793
      ],
      "type": "VEC2"
    },
    {
      "bufferView": 1,
      "byteOffset": 4871208,
      "componentType": 5126,
      "count": 28215,
      "max": [
        0.99993497133255,
        0.9999729990959167
      ],
      "min": [
        7.999999979801942e-06,
        0.0017020106315612793
      ],
      "type": "VEC2"
    },
    {
      "bufferView": 0,
      "byteOffset": 2563560,
      "componentType": 5125,
      "count": 119133,
      "type": "SCALAR"
    }
  ],
  "asset": {
    "extras": {
      "author": "ItsKrish7 (https://sketchfab.com/ItsKrish7)",
      "license": "CC-BY-4.0 (http://creativecommons.org/licenses/by/4.0/)",
      "source": "https://sketchfab.com/3d-models/stylized-demon-weapon-8a4800db589f4d298ed5756a787c75f2",
      "title": "Stylized Demon Weapon"
    },
    "generator": "Sketchfab-16.95.0",
    "version": "2.0"
  },
  "bufferViews": [
    {
      "buffer": 0,
      "byteLength": 3040092,
      "name": "floatBufferViews",
      "target": 34963
    },
    {
      "buffer": 0,
      "byteLength": 5096928,
      "byteOffset": 3040092,
      "byteStride": 8,
      "name": "floatBufferViews",
      "target": 34962
    },
    {
      "buffer": 0,
      "byteLength": 3822696,
      "byteOffset": 8137020,
      "byteStride": 12,
      "name": "floatBufferViews",
      "target": 34962
    },
    {
      "buffer": 0,
      "byteLength": 2548464,
      "byteOffset": 11959716,
      "byteStride": 16,
      "name": "floatBufferViews",
      "target": 34962
    }
  ],
  "buffers": [
    {
      "byteLength": 14508180,
      "uri": "scene.bin"
    }
  ],
  "images": [
    {
      "uri": "textures/material_0_baseColor.jpeg"
    },
    {
      "uri": "textures/material_0_metallicRoughness.png"
    },
    {
      "uri": "textures/material_0_normal.jpeg"
    }
  ],
  "materials": [
    {
      "doubleSided": true,
      "name": "material_0",
      "normalTexture": {
        "index": 2,
        "texCoord": 2
      },
      "pbrMetallicRoughness": {
        "baseColorTexture": {
          "index": 0
        },
        "metallicRoughnessTexture": {
          "index": 1,
          "texCoord": 1
        }
      }
    }
  ],
  "meshes": [
    {
      "name": "Object_0",
      "primitives": [
        {
          "attributes": {
            "NORMAL": 1,
            "POSITION": 0,
            "TANGENT": 2,
            "TEXCOORD_0": 3,
            "TEXCOORD_1": 4,
            "TEXCOORD_2": 5,
            "TEXCOORD_3": 6
          },
          "indices": 7,
          "material": 0,
          "mode": 4
        }
      ]
    },
    {
      "name": "Object_1",
      "primitives": [
        {
          "attributes": {
            "NORMAL": 9,
            "POSITION": 8,
            "TANGENT": 10,
            "TEXCOORD_0": 11,
            "TEXCOORD_1": 12,
            "TEXCOORD_2": 13,
            "TEXCOORD_3": 14
          },
          "indices": 15,
          "material": 0,
          "mode": 4
        }
      ]
    },
    {
      "name": "Object_2",
      "primitives": [
        {
          "attributes": {
            "NORMAL": 17,
            "POSITION": 16,
            "TANGENT": 18,
            "TEXCOORD_0": 19,
            "TEXCOORD_1": 20,
            "TEXCOORD_2": 21,
            "TEXCOORD_3": 22
          },
          "indices": 23,
          "material": 0,
          "mode": 4
        }
      ]
    }
  ],
  "nodes": [
    {
      "children": [
        1
      ],
      "matrix": [
        1.0,
        0.0,
        0.0,
        0.0,
        0.0,
        2.220446049250313e-16,
        -1.0,
        0.0,
        0.0,
        1.0,
        2.220446049250313e-16,
        0.0,
        0.0,
        0.0,
        0.0,
        1.0
      ],
      "name": "Sketchfab_model"
    },
    {
      "children": [
        2
      ],
      "name": "root"
    },
    {
      "children": [
        3
      ],
      "matrix": [
        1.0,
        0.0,
        0.0,
        0.0,
        0.0,
        2.220446049250313e-16,
        1.0,
        0.0,
        0.0,
        -1.0,
        2.220446049250313e-16,
        0.0,
        0.0,
        0.0,
        0.0,
        1.0
      ],
      "name": "GLTF_SceneRootNode"
    },
    {
      "children": [
        4,
        5,
        6
      ],
      "name": "_0"
    },
    {
      "mesh": 0,
      "name": "Object_4"
    },
    {
      "mesh": 1,
      "name": "Object_5"
    },
    {
      "mesh": 2,
      "name": "Object_6"
    }
  ],
  "samplers": [
    {
      "magFilter": 9729,
      "minFilter": 9987,
      "wrapS": 10497,
      "wrapT": 10497
    }
  ],
  "scene": 0,
  "scenes": [
    {
      "name": "Sketchfab_Scene",
      "nodes": [
        0
      ]
    }
  ],
  "textures": [
    {
      "sampler": 0,
      "source": 0
    },
    {
      "sampler": 0,
      "source": 1
    },
    {
      "sampler": 0,
      "source": 2
    }
  ]
}
